<?xml version="1.0" encoding="UTF-8" standalone="no"?>
<!DOCTYPE svg PUBLIC "-//W3C//DTD SVG 1.1//EN"
 "http://www.w3.org/Graphics/SVG/1.1/DTD/svg11.dtd">
<!-- Generated by graphviz version 2.28.0 (20111211.2114)
 -->
<!-- Title: G Pages: 1 -->
<svg width="774pt" height="510pt"
 viewBox="0.00 0.00 774.00 510.00" xmlns="http://www.w3.org/2000/svg" xmlns:xlink="http://www.w3.org/1999/xlink">
<g id="graph1" class="graph" transform="scale(1 1) rotate(0) translate(4 506)">
<title>G</title>
<polygon fill="white" stroke="white" points="-4,5 -4,-506 771,-506 771,5 -4,5"/>
<g id="graph2" class="cluster"><title>cluster_global</title>
<polyline fill="none" stroke="gray" points="191,-44 746,-44 "/>
<path fill="none" stroke="gray" d="M746,-44C752,-44 758,-50 758,-56"/>
<polyline fill="none" stroke="gray" points="758,-56 758,-482 "/>
<path fill="none" stroke="gray" d="M758,-482C758,-488 752,-494 746,-494"/>
<polyline fill="none" stroke="gray" points="746,-494 191,-494 "/>
<path fill="none" stroke="gray" d="M191,-494C185,-494 179,-488 179,-482"/>
<polyline fill="none" stroke="gray" points="179,-482 179,-56 "/>
<path fill="none" stroke="gray" d="M179,-56C179,-50 185,-44 191,-44"/>
<text text-anchor="middle" x="468.5" y="-481.2" font-family="Times,serif" font-size="11.00" fill="gray">global</text>
</g>
<!-- \\OAuthClientTest -->
<g id="node2" class="node"><title>\\OAuthClientTest</title>
<a xlink:href="tests.OAuthClientTest.html" xlink:title="OAuthClientTest" target="_parent">
<polygon fill="none" stroke="black" points="682,-142 564,-142 564,-106 682,-106 682,-142"/>
<text text-anchor="middle" x="623" y="-121.2" font-family="Courier,monospace" font-size="11.00">OAuthClientTest</text>
</a>
</g>
<!-- \\PHPUnit_Framework_TestCase -->
<g id="node13" class="node"><title>\\PHPUnit_Framework_TestCase</title>
<ellipse fill="none" stroke="black" cx="297" cy="-18" rx="126.978" ry="18"/>
<text text-anchor="middle" x="297" y="-14.3" font-family="Times,serif" font-size="14.00" fill="gray">\PHPUnit_Framework_TestCase</text>
</g>
<!-- \\OAuthClientTest&#45;&gt;\\PHPUnit_Framework_TestCase -->
<g id="edge3" class="edge"><title>\\OAuthClientTest&#45;&gt;\\PHPUnit_Framework_TestCase</title>
<path fill="none" stroke="black" d="M563.748,-117.237C541.788,-113.233 517.047,-106.918 496,-97 459.08,-79.6022 461.246,-56.6889 424,-40 417.522,-37.0972 410.696,-34.5764 403.712,-32.3873"/>
<polygon fill="none" stroke="black" points="404.686,-29.0255 394.107,-29.6031 402.737,-35.7488 404.686,-29.0255"/>
</g>
<!-- \\ClientTest -->
<g id="node3" class="node"><title>\\ClientTest</title>
<a xlink:href="tests.ClientTest.html" xlink:title="ClientTest" target="_parent">
<polygon fill="none" stroke="black" points="665,-88 581,-88 581,-52 665,-52 665,-88"/>
<text text-anchor="middle" x="623" y="-67.2" font-family="Courier,monospace" font-size="11.00">ClientTest</text>
</a>
</g>
<!-- \\ClientTest&#45;&gt;\\PHPUnit_Framework_TestCase -->
<g id="edge5" class="edge"><title>\\ClientTest&#45;&gt;\\PHPUnit_Framework_TestCase</title>
<path fill="none" stroke="black" d="M580.965,-63.4142C533.606,-55.8134 454.204,-43.0697 391.544,-33.0132"/>
<polygon fill="none" stroke="black" points="392.067,-29.5525 381.639,-31.4235 390.958,-36.464 392.067,-29.5525"/>
</g>
<!-- \\BasicClientTest -->
<g id="node4" class="node"><title>\\BasicClientTest</title>
<a xlink:href="tests.BasicClientTest.html" xlink:title="BasicClientTest" target="_parent">
<polygon fill="none" stroke="black" points="682,-196 564,-196 564,-160 682,-160 682,-196"/>
<text text-anchor="middle" x="623" y="-175.2" font-family="Courier,monospace" font-size="11.00">BasicClientTest</text>
</a>
</g>
<!-- \\BasicClientTest&#45;&gt;\\PHPUnit_Framework_TestCase -->
<g id="edge7" class="edge"><title>\\BasicClientTest&#45;&gt;\\PHPUnit_Framework_TestCase</title>
<path fill="none" stroke="black" d="M563.987,-175.057C541.195,-171.59 515.805,-164.643 496,-151 447.575,-117.641 473.053,-72.4276 424,-40 419.654,-37.127 415.046,-34.5959 410.262,-32.368"/>
<polygon fill="none" stroke="black" points="411.44,-29.0675 400.864,-28.4474 408.745,-35.5279 411.44,-29.0675"/>
</g>
<!-- \\Services_SmartFile -->
<g id="node5" class="node"><title>\\Services_SmartFile</title>
<a xlink:href="Services.SmartFile.html" xlink:title="Services_SmartFile" target="_parent">
<polygon fill="none" stroke="black" points="692,-304 554,-304 554,-268 692,-268 692,-304"/>
<text text-anchor="middle" x="623" y="-283.2" font-family="Courier,monospace" font-size="11.00">Services_SmartFile</text>
</a>
</g>
<!-- \\Service_SmartFile_Client -->
<g id="node6" class="node"><title>\\Service_SmartFile_Client</title>
<a xlink:href="Services.SmartFile.Client.html" xlink:title="Service_SmartFile_Client" target="_parent">
<polygon fill="none" stroke="black" points="386.5,-304 207.5,-304 207.5,-268 386.5,-268 386.5,-304"/>
<text text-anchor="middle" x="297" y="-283.2" font-family="Courier,monospace" font-size="11.00">Service_SmartFile_Client</text>
</a>
</g>
<!-- \\Service_SmartFile_BasicClient -->
<g id="node7" class="node"><title>\\Service_SmartFile_BasicClient</title>
<a xlink:href="Services.SmartFile.BasicClient.html" xlink:title="Service_SmartFile_BasicClient" target="_parent">
<polygon fill="none" stroke="black" points="729,-358 517,-358 517,-322 729,-322 729,-358"/>
<text text-anchor="middle" x="623" y="-337.2" font-family="Courier,monospace" font-size="11.00">Service_SmartFile_BasicClient</text>
</a>
</g>
<!-- \\Service_SmartFile_BasicClient&#45;&gt;\\Service_SmartFile_Client -->
<g id="edge9" class="edge"><title>\\Service_SmartFile_BasicClient&#45;&gt;\\Service_SmartFile_Client</title>
<path fill="none" stroke="black" d="M516.806,-322.468C478.218,-316.036 434.706,-308.784 396.707,-302.451"/>
<polygon fill="none" stroke="black" points="397.098,-298.968 386.659,-300.777 395.948,-305.873 397.098,-298.968"/>
</g>
<!-- \\Service_SmartFile_APIException -->
<g id="node8" class="node"><title>\\Service_SmartFile_APIException</title>
<a xlink:href="Services.SmartFile.Exception.html" xlink:title="Service_SmartFile_APIException" target="_parent">
<polygon fill="none" stroke="black" points="406.5,-439 187.5,-439 187.5,-403 406.5,-403 406.5,-439"/>
<text text-anchor="middle" x="297" y="-418.2" font-family="Courier,monospace" font-size="11.00">Service_SmartFile_APIException</text>
</a>
</g>
<!-- \\Exception -->
<g id="node18" class="node"><title>\\Exception</title>
<ellipse fill="none" stroke="black" cx="49" cy="-421" rx="48.9926" ry="18"/>
<text text-anchor="middle" x="49" y="-417.3" font-family="Times,serif" font-size="14.00" fill="gray">\Exception</text>
</g>
<!-- \\Service_SmartFile_APIException&#45;&gt;\\Exception -->
<g id="edge11" class="edge"><title>\\Service_SmartFile_APIException&#45;&gt;\\Exception</title>
<path fill="none" stroke="black" d="M187.385,-421C160.14,-421 131.94,-421 108.232,-421"/>
<polygon fill="none" stroke="black" points="108.02,-417.5 98.0198,-421 108.02,-424.5 108.02,-417.5"/>
</g>
<!-- \\Service_SmartFile_RequestException -->
<g id="node9" class="node"><title>\\Service_SmartFile_RequestException</title>
<a xlink:href="Services.SmartFile.Exception.html" xlink:title="Service_SmartFile_RequestException" target="_parent">
<polygon fill="none" stroke="black" points="746,-466 500,-466 500,-430 746,-430 746,-466"/>
<text text-anchor="middle" x="623" y="-445.2" font-family="Courier,monospace" font-size="11.00">Service_SmartFile_RequestException</text>
</a>
</g>
<!-- \\Service_SmartFile_RequestException&#45;&gt;\\Service_SmartFile_APIException -->
<g id="edge13" class="edge"><title>\\Service_SmartFile_RequestException&#45;&gt;\\Service_SmartFile_APIException</title>
<path fill="none" stroke="black" d="M499.971,-437.831C472.771,-435.564 443.968,-433.164 416.897,-430.908"/>
<polygon fill="none" stroke="black" points="416.869,-427.394 406.613,-430.051 416.288,-434.37 416.869,-427.394"/>
</g>
<!-- \\Service_SmartFile_ResponseException -->
<g id="node10" class="node"><title>\\Service_SmartFile_ResponseException</title>
<a xlink:href="Services.SmartFile.Exception.html" xlink:title="Service_SmartFile_ResponseException" target="_parent">
<polygon fill="none" stroke="black" points="749.5,-412 496.5,-412 496.5,-376 749.5,-376 749.5,-412"/>
<text text-anchor="middle" x="623" y="-391.2" font-family="Courier,monospace" font-size="11.00">Service_SmartFile_ResponseException</text>
</a>
</g>
<!-- \\Service_SmartFile_ResponseException&#45;&gt;\\Service_SmartFile_APIException -->
<g id="edge15" class="edge"><title>\\Service_SmartFile_ResponseException&#45;&gt;\\Service_SmartFile_APIException</title>
<path fill="none" stroke="black" d="M496.269,-404.478C470.123,-406.656 442.648,-408.946 416.763,-411.103"/>
<polygon fill="none" stroke="black" points="416.22,-407.636 406.545,-411.955 416.801,-414.612 416.22,-407.636"/>
</g>
<!-- \\Service_SmartFile_OAuthClient -->
<g id="node11" class="node"><title>\\Service_SmartFile_OAuthClient</title>
<a xlink:href="Services.SmartFile.OAuthClient.html" xlink:title="Service_SmartFile_OAuthClient" target="_parent">
<polygon fill="none" stroke="black" points="729,-250 517,-250 517,-214 729,-214 729,-250"/>
<text text-anchor="middle" x="623" y="-229.2" font-family="Courier,monospace" font-size="11.00">Service_SmartFile_OAuthClient</text>
</a>
</g>
<!-- \\Service_SmartFile_OAuthClient&#45;&gt;\\Service_SmartFile_Client -->
<g id="edge17" class="edge"><title>\\Service_SmartFile_OAuthClient&#45;&gt;\\Service_SmartFile_Client</title>
<path fill="none" stroke="black" d="M516.806,-249.532C478.218,-255.964 434.706,-263.216 396.707,-269.549"/>
<polygon fill="none" stroke="black" points="395.948,-266.127 386.659,-271.223 397.098,-273.032 395.948,-266.127"/>
</g>
</g>
</svg>
